<svg width="1635" height="1637" xmlns="http://www.w3.org/2000/svg" xmlns:xlink="http://www.w3.org/1999/xlink" xml:space="preserve" overflow="hidden"><g transform="translate(-1383 -418)"><path d="M1393.5 1047.37 2010 1047.38 2200.5 430.5 2391 1047.38 3007.5 1047.37 2508.74 1428.62 2699.25 2045.5 2200.5 1664.24 1701.75 2045.5 1892.26 1428.62Z" stroke="#000000" stroke-width="6.875" stroke-miterlimit="8" fill-rule="evenodd"/><path d="M2917 1068 2193.81 1586 1493 1068Z" stroke="#000000" stroke-width="48.125" stroke-miterlimit="8" fill="#FFFFFF" fill-rule="evenodd"/><path d="M1952 1207C1952 1160.06 2065.27 1122 2205 1122 2344.73 1122 2458 1160.06 2458 1207 2458 1253.94 2344.73 1292 2205 1292 2065.27 1292 1952 1253.94 1952 1207Z" fill-rule="evenodd"/><path d="M1952 1207 2205 449 2458 1207Z" fill-rule="evenodd"/><path d="M2197 1238 2197 1565.63" stroke="#000000" stroke-width="45.8333" stroke-miterlimit="8" fill="none" fill-rule="evenodd"/></g></svg>